<?xml version="1.0" encoding="utf-8"?>
<!-- Generator: Adobe Illustrator 16.0.0, SVG Export Plug-In . SVG Version: 6.00 Build 0)  -->
<!DOCTYPE svg PUBLIC "-//W3C//DTD SVG 1.1//EN" "http://www.w3.org/Graphics/SVG/1.1/DTD/svg11.dtd">
<svg version="1.1" id="Layer_1" xmlns="http://www.w3.org/2000/svg" xmlns:xlink="http://www.w3.org/1999/xlink" x="0px" y="0px"
	 width="215px" height="215px" viewBox="0 0 215 215" enable-background="new 0 0 215 215" xml:space="preserve">
<g>
	<defs>
		<rect id="SVGID_1_" x="1.5" y="1.5" width="212" height="212"/>
	</defs>
	<clipPath id="SVGID_2_">
		<use xlink:href="#SVGID_1_"  overflow="visible"/>
	</clipPath>
	<g clip-path="url(#SVGID_2_)">
		<path fill="#4DBD98" d="M107.501,1.5C48.958,1.5,1.5,48.958,1.5,107.5c0,58.541,47.458,106,106.001,106
			c58.541,0,105.999-47.459,105.999-106C213.5,48.958,166.042,1.5,107.501,1.5"/>
	</g>
</g>
<g>
	<defs>
		<rect id="SVGID_3_" x="1.5" y="1.5" width="212" height="212"/>
	</defs>
	<clipPath id="SVGID_4_">
		<use xlink:href="#SVGID_3_"  overflow="visible"/>
	</clipPath>
	<g clip-path="url(#SVGID_4_)">
		<g>
			<defs>
				<path id="SVGID_5_" d="M107.501,1.5C48.958,1.5,1.5,48.958,1.5,107.5c0,58.541,47.458,106,106.001,106
					c58.541,0,105.999-47.459,105.999-106C213.5,48.958,166.042,1.5,107.501,1.5"/>
			</defs>
			<clipPath id="SVGID_6_">
				<use xlink:href="#SVGID_5_"  overflow="visible"/>
			</clipPath>
			<g clip-path="url(#SVGID_6_)">
				<path fill="none" stroke="#0EB689" stroke-width="4" d="M107.501,1.5C48.958,1.5,1.5,48.958,1.5,107.5
					c0,58.541,47.458,106,106.001,106c58.541,0,105.999-47.459,105.999-106C213.5,48.958,166.042,1.5,107.501,1.5"/>
			</g>
		</g>
		<g>
			<defs>
				<rect id="SVGID_7_" x="94.021" y="104.75" width="49.25" height="64"/>
			</defs>
			<clipPath id="SVGID_8_">
				<use xlink:href="#SVGID_7_"  overflow="visible"/>
			</clipPath>
			<g clip-path="url(#SVGID_8_)">
				<path fill="#093C4C" d="M94.917,112.984v12.656c0,0.916,0.75,1.656,1.666,1.656c0.917,0,1.667-0.74,1.667-1.656v-12.656
					c0-2.746,2.239-4.975,4.989-4.975h31.537c2.75,0,4.99,2.229,4.99,4.975v47.422c0,2.738-2.24,4.973-4.99,4.973h-31.537
					c-2.75,0-4.989-2.234-4.989-4.973V147.75c0-0.918-0.75-1.656-1.667-1.656c-0.916,0-1.666,0.738-1.666,1.656v12.656
					c0,4.572,3.734,8.291,8.322,8.291h31.537c4.588,0,8.322-3.719,8.322-8.291v-47.422c0-4.574-3.734-8.292-8.322-8.292h-31.537
					C98.651,104.692,94.917,108.41,94.917,112.984z"/>
			</g>
		</g>
		<g>
			<defs>
				<rect id="SVGID_9_" x="71.271" y="123.354" width="52.084" height="26.666"/>
			</defs>
			<clipPath id="SVGID_10_">
				<use xlink:href="#SVGID_9_"  overflow="visible"/>
			</clipPath>
			<g clip-path="url(#SVGID_10_)">
				<path fill="#093C4C" d="M107.989,148.822c0.652,0.65,1.703,0.65,2.355,0l12.176-12.131l-1.172-1.172c-0.004,0-0.004,0-0.004,0
					l-11-10.953c-0.652-0.65-1.703-0.65-2.355,0c-0.65,0.646-0.65,1.693,0,2.344l8.162,8.125H73c-0.922,0-1.667,0.746-1.667,1.656
					c0,0.918,0.745,1.662,1.667,1.662h43.151l-8.162,8.125C107.339,147.129,107.339,148.176,107.989,148.822z"/>
			</g>
		</g>
		<g>
			<g transform="translate(150.531429, 168.740923)">
				<g>
					<path fill="#093C4C" d="M-86.781-92.149c-2.083,0-3.906-0.427-5.458-1.292c-1.542-0.875-2.729-2.104-3.563-3.688
						c-0.823-1.594-1.229-3.447-1.229-5.563c0-2.094,0.406-3.938,1.229-5.521c0.833-1.583,2.021-2.802,3.563-3.667
						c1.552-0.875,3.375-1.313,5.458-1.313c1.359,0,2.656,0.209,3.896,0.625c1.234,0.417,2.25,1,3.041,1.75l-1.416,3.229
						c-0.917-0.692-1.813-1.198-2.688-1.521c-0.875-0.318-1.792-0.479-2.75-0.479c-1.85,0-3.266,0.594-4.25,1.771
						c-0.975,1.167-1.459,2.875-1.459,5.125c0,2.266,0.484,3.99,1.459,5.167c0.984,1.183,2.4,1.771,4.25,1.771
						c0.958,0,1.875-0.15,2.75-0.458c0.875-0.317,1.771-0.823,2.688-1.521l1.416,3.229c-0.791,0.75-1.807,1.334-3.041,1.75
						C-84.125-92.352-85.422-92.149-86.781-92.149z"/>
				</g>
			</g>
		</g>
		<g>
			<g transform="translate(165.331039, 168.740923)">
				<g>
					<path fill="#093C4C" d="M-91.785-92.399v-21.229h4.354v21.229H-91.785z"/>
				</g>
			</g>
		</g>
		<g>
			<g transform="translate(171.250893, 168.740923)">
				<g>
					<path fill="#093C4C" d="M-82.833-92.17c-1.558,0-2.917-0.303-4.083-0.917c-1.156-0.625-2.042-1.511-2.667-2.667
						c-0.625-1.15-0.938-2.489-0.938-4.021c0-1.542,0.313-2.886,0.938-4.042c0.625-1.15,1.511-2.031,2.667-2.646
						c1.166-0.625,2.525-0.938,4.083-0.938c1.542,0,2.886,0.313,4.042,0.938c1.15,0.614,2.041,1.495,2.666,2.646
						c0.625,1.156,0.938,2.5,0.938,4.042c0,1.531-0.313,2.87-0.938,4.021c-0.625,1.156-1.516,2.042-2.666,2.667
						C-79.947-92.472-81.291-92.17-82.833-92.17z M-82.833-95.482c1.083,0,1.906-0.354,2.479-1.063
						c0.567-0.719,0.854-1.797,0.854-3.229c0-1.427-0.286-2.505-0.854-3.229c-0.573-0.719-1.396-1.083-2.479-1.083
						c-1.099,0-1.938,0.364-2.521,1.083c-0.573,0.725-0.854,1.803-0.854,3.229C-86.208-96.91-85.083-95.482-82.833-95.482z"/>
				</g>
			</g>
		</g>
		<g>
			<g transform="translate(184.30048, 168.740923)">
				<g>
					<path fill="#093C4C" d="M-78.525-92.17c-2.391,0-4.266-0.672-5.625-2.021c-1.349-1.344-2.021-3.177-2.021-5.5
						c0-1.51,0.323-2.854,0.979-4.021c0.65-1.167,1.567-2.067,2.75-2.708c1.177-0.651,2.547-0.979,4.104-0.979
						c1.053,0,2.084,0.167,3.084,0.5c1,0.323,1.797,0.766,2.396,1.333l-1.146,3.021c-0.583-0.459-1.224-0.818-1.917-1.084
						c-0.682-0.26-1.349-0.396-2-0.396c-1.198,0-2.125,0.364-2.792,1.083c-0.666,0.725-1,1.781-1,3.167
						c0,1.406,0.323,2.469,0.979,3.188c0.651,0.724,1.589,1.083,2.813,1.083c0.651,0,1.318-0.13,2-0.396
						c0.693-0.261,1.334-0.625,1.917-1.083l1.146,3.021c-0.625,0.558-1.453,0.995-2.479,1.313
						C-76.352-92.332-77.416-92.17-78.525-92.17z"/>
				</g>
			</g>
		</g>
		<g>
			<g transform="translate(195.297561, 168.740923)">
				<g>
					<path fill="#093C4C" d="M-66.359-92.399h-5.333l-5.75-6.542v6.542h-4.354v-21.229h4.354v12.896l5.479-6.25h5.229l-6.208,7
						L-66.359-92.399z"/>
				</g>
			</g>
		</g>
		<g>
			<g transform="translate(207.677379, 168.740923)">
			</g>
		</g>
		<g>
			<g transform="translate(213.748458, 168.740923)">
				<g>
					<path fill="#093C4C" d="M-75.355-92.399v-20.521h4.5v20.521H-75.355z"/>
				</g>
			</g>
		</g>
		<g>
			<g transform="translate(220.208439, 168.740923)">
				<g>
					<path fill="#093C4C" d="M-64.452-107.399c3.459,0,5.188,2.052,5.188,6.146v8.854h-4.354v-8.646
						c0-1.026-0.188-1.771-0.563-2.229c-0.375-0.469-0.969-0.708-1.771-0.708c-0.973,0-1.75,0.307-2.332,0.916
						c-0.574,0.615-0.855,1.438-0.855,2.479v8.188h-4.354v-10.438c0-1.552-0.078-2.948-0.229-4.188h4.104l0.291,2.313
						c0.512-0.859,1.188-1.521,2.021-1.979C-66.471-107.16-65.524-107.399-64.452-107.399z"/>
				</g>
			</g>
		</g>
	</g>
</g>
</svg>
