<?xml version="1.0" encoding="utf-8"?>
<!-- Generator: Adobe Illustrator 16.0.0, SVG Export Plug-In . SVG Version: 6.00 Build 0)  -->
<!DOCTYPE svg PUBLIC "-//W3C//DTD SVG 1.1//EN" "http://www.w3.org/Graphics/SVG/1.1/DTD/svg11.dtd">
<svg version="1.1" id="Layer_1" xmlns="http://www.w3.org/2000/svg" xmlns:xlink="http://www.w3.org/1999/xlink" x="0px" y="0px"
	 width="215px" height="215px" viewBox="0 0 215 215" enable-background="new 0 0 215 215" xml:space="preserve">
<g>
	<defs>
		<rect id="SVGID_1_" x="1.552" y="1.553" width="211.896" height="211.895"/>
	</defs>
	<clipPath id="SVGID_2_">
		<use xlink:href="#SVGID_1_"  overflow="visible"/>
	</clipPath>
	<g clip-path="url(#SVGID_2_)">
		<path fill="#EF495F" d="M107.5,1.553C48.984,1.553,1.552,48.984,1.552,107.5S48.984,213.447,107.5,213.447
			S213.448,166.016,213.448,107.5S166.016,1.553,107.5,1.553"/>
	</g>
</g>
<g>
	<defs>
		<rect id="SVGID_3_" x="1.552" y="1.553" width="211.896" height="211.895"/>
	</defs>
	<clipPath id="SVGID_4_">
		<use xlink:href="#SVGID_3_"  overflow="visible"/>
	</clipPath>
	<g clip-path="url(#SVGID_4_)">
		<g>
			<defs>
				<path id="SVGID_5_" d="M107.5,1.553C48.984,1.553,1.552,48.984,1.552,107.5S48.984,213.447,107.5,213.447
					S213.448,166.016,213.448,107.5S166.016,1.553,107.5,1.553"/>
			</defs>
			<clipPath id="SVGID_6_">
				<use xlink:href="#SVGID_5_"  overflow="visible"/>
			</clipPath>
			<g clip-path="url(#SVGID_6_)">
				<path fill="none" stroke="#DD1F26" stroke-width="3.6621" d="M107.5,1.553C48.984,1.553,1.552,48.984,1.552,107.5
					S48.984,213.447,107.5,213.447S213.448,166.016,213.448,107.5S166.016,1.553,107.5,1.553"/>
			</g>
		</g>
		<g>
			<defs>
				<rect id="SVGID_7_" x="71.406" y="104.359" width="49.334" height="64.443"/>
			</defs>
			<clipPath id="SVGID_8_">
				<use xlink:href="#SVGID_7_"  overflow="visible"/>
			</clipPath>
			<g clip-path="url(#SVGID_8_)">
				<path fill="#FFFFFF" d="M119.803,112.65v12.746c0,0.922-0.746,1.666-1.668,1.666c-0.916,0-1.666-0.744-1.666-1.666V112.65
					c0-2.76-2.244-5.01-5-5.01H79.896c-2.755,0-5,2.25-5,5.01v47.75c0,2.762,2.245,5.012,5,5.012h31.573c2.756,0,5-2.25,5-5.012
					v-12.744c0-0.922,0.75-1.666,1.666-1.666c0.922,0,1.668,0.744,1.668,1.666V160.4c0,4.605-3.734,8.35-8.334,8.35H79.896
					c-4.594,0-8.333-3.744-8.333-8.35v-47.75c0-4.604,3.739-8.348,8.333-8.348h31.573
					C116.068,104.303,119.803,108.047,119.803,112.65z"/>
			</g>
		</g>
		<g>
			<defs>
				<rect id="SVGID_9_" x="91.406" y="123.406" width="52.006" height="26.666"/>
			</defs>
			<clipPath id="SVGID_10_">
				<use xlink:href="#SVGID_9_"  overflow="visible"/>
			</clipPath>
			<g clip-path="url(#SVGID_10_)">
				<path fill="#FFFFFF" d="M106.713,148.74c-0.65,0.65-1.703,0.65-2.354,0l-12.198-12.215l1.183-1.182l11.016-11.031
					c0.65-0.65,1.703-0.65,2.354,0c0.651,0.65,0.651,1.709,0,2.359l-8.172,8.182h43.209c0.922,0,1.666,0.75,1.666,1.672
					s-0.744,1.668-1.666,1.668H98.541l8.172,8.188C107.364,147.031,107.364,148.088,106.713,148.74z"/>
			</g>
		</g>
		<g>
			<g transform="translate(140.973331, 168.740966)">
				<g>
					<path fill="#FDFEFC" d="M-89.916-92.096c-2.083,0-3.906-0.427-5.458-1.292c-1.542-0.875-2.729-2.104-3.563-3.688
						c-0.823-1.594-1.229-3.447-1.229-5.563c0-2.094,0.406-3.938,1.229-5.521c0.833-1.583,2.021-2.802,3.563-3.667
						c1.552-0.875,3.375-1.313,5.458-1.313c1.359,0,2.656,0.209,3.896,0.625c1.234,0.417,2.25,1,3.041,1.75l-1.416,3.229
						c-0.917-0.692-1.813-1.198-2.688-1.521c-0.875-0.318-1.792-0.479-2.75-0.479c-1.85,0-3.266,0.594-4.25,1.771
						c-0.975,1.167-1.459,2.875-1.459,5.125c0,2.266,0.484,3.99,1.459,5.167c0.984,1.183,2.4,1.771,4.25,1.771
						c0.958,0,1.875-0.15,2.75-0.458c0.875-0.317,1.771-0.823,2.688-1.521l1.416,3.229c-0.791,0.75-1.807,1.334-3.041,1.75
						C-87.259-92.3-88.556-92.096-89.916-92.096z"/>
				</g>
			</g>
		</g>
		<g>
			<g transform="translate(155.77294, 168.740966)">
				<g>
					<path fill="#FDFEFC" d="M-94.919-92.346v-21.229h4.354v21.229H-94.919z"/>
				</g>
			</g>
		</g>
		<g>
			<g transform="translate(161.692794, 168.740966)">
				<g>
					<path fill="#FDFEFC" d="M-85.967-92.117c-1.558,0-2.917-0.303-4.083-0.917c-1.156-0.625-2.042-1.511-2.667-2.667
						c-0.625-1.15-0.938-2.489-0.938-4.021c0-1.542,0.313-2.886,0.938-4.042c0.625-1.15,1.511-2.031,2.667-2.646
						c1.166-0.625,2.525-0.938,4.083-0.938c1.542,0,2.886,0.313,4.042,0.938c1.15,0.614,2.041,1.495,2.666,2.646
						c0.625,1.156,0.938,2.5,0.938,4.042c0,1.531-0.313,2.87-0.938,4.021c-0.625,1.156-1.516,2.042-2.666,2.667
						C-83.081-92.42-84.425-92.117-85.967-92.117z M-85.967-95.429c1.083,0,1.906-0.354,2.479-1.063
						c0.567-0.719,0.854-1.797,0.854-3.229c0-1.427-0.286-2.505-0.854-3.229c-0.573-0.719-1.396-1.083-2.479-1.083
						c-1.099,0-1.938,0.364-2.521,1.083c-0.573,0.725-0.854,1.803-0.854,3.229C-89.342-96.857-88.217-95.429-85.967-95.429z"/>
				</g>
			</g>
		</g>
		<g>
			<g transform="translate(174.742381, 168.740966)">
				<g>
					<path fill="#FDFEFC" d="M-81.659-92.117c-2.391,0-4.266-0.672-5.625-2.021c-1.349-1.344-2.021-3.177-2.021-5.5
						c0-1.51,0.323-2.854,0.979-4.021c0.65-1.167,1.567-2.067,2.75-2.708c1.177-0.651,2.547-0.979,4.104-0.979
						c1.053,0,2.084,0.167,3.084,0.5c1,0.323,1.797,0.766,2.396,1.333l-1.146,3.021c-0.584-0.459-1.225-0.818-1.917-1.084
						c-0.683-0.26-1.349-0.396-2-0.396c-1.198,0-2.125,0.364-2.792,1.083c-0.666,0.725-1,1.781-1,3.167
						c0,1.406,0.323,2.469,0.979,3.188c0.651,0.724,1.589,1.083,2.813,1.083c0.651,0,1.317-0.13,2-0.396
						c0.692-0.261,1.333-0.625,1.917-1.083l1.146,3.021c-0.625,0.558-1.453,0.995-2.479,1.313
						C-79.488-92.279-80.55-92.117-81.659-92.117z"/>
				</g>
			</g>
		</g>
		<g>
			<g transform="translate(185.739462, 168.740966)">
				<g>
					<path fill="#FDFEFC" d="M-69.493-92.346h-5.333l-5.75-6.542v6.542h-4.354v-21.229h4.354v12.896l5.479-6.25h5.229l-6.208,7
						L-69.493-92.346z"/>
				</g>
			</g>
		</g>
		<g>
			<g transform="translate(198.119281, 168.740966)">
			</g>
		</g>
		<g>
			<g transform="translate(204.190359, 168.740966)">
				<g>
					<path fill="#FDFEFC" d="M-69.052-92.096c-2.041,0-3.822-0.422-5.333-1.271c-1.5-0.859-2.661-2.084-3.479-3.667
						c-0.822-1.594-1.229-3.464-1.229-5.604c0-2.135,0.406-3.989,1.229-5.563c0.818-1.583,1.979-2.797,3.479-3.646
						c1.511-0.859,3.292-1.292,5.333-1.292c2.042,0,3.803,0.433,5.292,1.292c1.5,0.849,2.651,2.063,3.458,3.646
						c0.818,1.573,1.229,3.428,1.229,5.563c0,2.141-0.411,4.011-1.229,5.604c-0.807,1.583-1.958,2.808-3.458,3.667
						C-65.249-92.518-67.01-92.096-69.052-92.096z M-69.052-95.596c1.719,0,3.068-0.604,4.042-1.813
						c0.969-1.219,1.458-2.964,1.458-5.229c0-2.26-0.489-3.989-1.458-5.188c-0.974-1.192-2.323-1.791-4.042-1.791
						c-1.739,0-3.094,0.599-4.063,1.791c-0.974,1.198-1.458,2.928-1.458,5.188c0,2.292,0.484,4.042,1.458,5.25
						C-72.145-96.19-70.791-95.596-69.052-95.596z"/>
				</g>
			</g>
		</g>
		<g>
			<g transform="translate(221.366558, 168.740966)">
				<g>
					<path fill="#FDFEFC" d="M-59.097-106.971v14.625h-4.229v-2.125c-0.459,0.766-1.063,1.349-1.813,1.75s-1.6,0.604-2.542,0.604
						c-1.833,0-3.203-0.506-4.104-1.521c-0.906-1.025-1.354-2.567-1.354-4.625v-8.708h4.354v8.792c0,1.781,0.761,2.666,2.292,2.666
						c0.901,0,1.63-0.302,2.188-0.916c0.552-0.625,0.833-1.438,0.833-2.438v-8.104H-59.097z"/>
				</g>
			</g>
		</g>
		<g>
			<g transform="translate(234.459363, 168.740966)">
				<g>
					<path fill="#FDFEFC" d="M-63.211-103.701v5.667c0,0.808,0.208,1.396,0.625,1.771c0.427,0.375,0.984,0.563,1.667,0.563
						c0.416,0,0.896-0.063,1.438-0.188v3.375c-0.698,0.261-1.531,0.396-2.5,0.396c-1.823,0-3.209-0.506-4.167-1.521
						c-0.948-1.025-1.417-2.458-1.417-4.291v-5.771h-2.75v-3.271h2.75v-3.417l4.354-1.416v4.833h3.729v3.271H-63.211z"/>
				</g>
			</g>
		</g>
	</g>
</g>
</svg>
