<?xml version="1.0" encoding="utf-8"?>
<!-- Generator: Adobe Illustrator 16.0.0, SVG Export Plug-In . SVG Version: 6.00 Build 0)  -->
<!DOCTYPE svg PUBLIC "-//W3C//DTD SVG 1.1//EN" "http://www.w3.org/Graphics/SVG/1.1/DTD/svg11.dtd">
<svg version="1.1" id="Layer_1" xmlns="http://www.w3.org/2000/svg" xmlns:xlink="http://www.w3.org/1999/xlink" x="0px" y="0px"
	 width="254px" height="75px" viewBox="0 0 254 75" enable-background="new 0 0 254 75" xml:space="preserve">
<g>
	<g>
		<defs>
			<rect id="SVGID_1_" x="2.005" y="2" width="250" height="71"/>
		</defs>
		<clipPath id="SVGID_2_">
			<use xlink:href="#SVGID_1_"  overflow="visible"/>
		</clipPath>
		<g clip-path="url(#SVGID_2_)">
			<path fill="#F99F22" d="M11.01,2H243c2.387,0,4.672,0.953,6.359,2.651s2.641,4,2.641,6.396v52.906
				c0,2.402-0.953,4.703-2.641,6.402C247.671,72.047,245.385,73,243,73H11.01c-2.391,0-4.677-0.953-6.364-2.645
				c-1.688-1.699-2.636-4-2.636-6.402V11.047c0-2.396,0.948-4.697,2.636-6.396C6.333,2.953,8.62,2,11.01,2"/>
		</g>
	</g>
</g>
<g>
	<g>
		<defs>
			<rect id="SVGID_3_" x="188.469" y="18.339" width="37.262" height="37.255"/>
		</defs>
		<clipPath id="SVGID_4_">
			<use xlink:href="#SVGID_3_"  overflow="visible"/>
		</clipPath>
		<g clip-path="url(#SVGID_4_)">
			<path fill="#293E3B" d="M207.12,55.615c10.271,0,18.625-8.359,18.625-18.625c0-10.271-8.354-18.625-18.625-18.625
				s-18.625,8.354-18.625,18.625C188.495,47.256,196.85,55.615,207.12,55.615z M201.85,28.656c0-0.302,0.155-0.578,0.422-0.719
				c0.125-0.073,0.261-0.104,0.4-0.104c0.146,0,0.303,0.042,0.434,0.125l13.354,8.328c0.24,0.151,0.387,0.417,0.387,0.703
				c0,0.281-0.146,0.547-0.387,0.698l-13.354,8.333c-0.25,0.155-0.573,0.162-0.834,0.021c-0.267-0.146-0.422-0.422-0.422-0.725
				V28.656z"/>
		</g>
	</g>
</g>
<g>
	<g transform="translate(117.944719, 199.480062)">
		<g>
			<path fill="#293E3B" d="M-81.164-151.937c-1.448,0-2.828-0.188-4.146-0.563c-1.323-0.386-2.417-0.927-3.292-1.625l1.333-2.979
				c1.833,1.281,3.875,1.918,6.125,1.918c1.208,0,2.13-0.188,2.771-0.563c0.651-0.386,0.979-0.927,0.979-1.625
				c0-0.608-0.302-1.089-0.896-1.438c-0.583-0.344-1.625-0.677-3.125-1c-1.667-0.332-2.995-0.738-3.979-1.229
				c-0.99-0.484-1.708-1.073-2.167-1.771c-0.448-0.708-0.667-1.583-0.667-2.625c0-1.136,0.313-2.156,0.938-3.063
				c0.636-0.917,1.526-1.625,2.667-2.125c1.135-0.5,2.448-0.75,3.938-0.75c1.344,0,2.635,0.197,3.875,0.583
				c1.25,0.391,2.25,0.917,3,1.583l-1.333,2.979c-1.667-1.276-3.51-1.917-5.521-1.917c-1.057,0-1.906,0.219-2.542,0.646
				c-0.641,0.432-0.958,1.01-0.958,1.729c0,0.432,0.115,0.792,0.354,1.083c0.234,0.281,0.635,0.531,1.208,0.75
				c0.568,0.224,1.375,0.438,2.417,0.646c2.427,0.53,4.177,1.224,5.25,2.084c1.083,0.849,1.625,2.01,1.625,3.479
				c0,1.781-0.698,3.188-2.083,4.229C-76.768-152.459-78.696-151.937-81.164-151.937z"/>
		</g>
	</g>
</g>
<g>
	<g transform="translate(131.064145, 199.480062)">
		<g>
			<path fill="#293E3B" d="M-78.625-162.688v5.251c0,0.75,0.193,1.301,0.583,1.646c0.385,0.351,0.896,0.521,1.521,0.521
				c0.385,0,0.833-0.063,1.333-0.188v3.104c-0.641,0.25-1.417,0.375-2.333,0.375c-1.667,0-2.938-0.463-3.813-1.396
				c-0.875-0.942-1.313-2.271-1.313-3.979v-5.333h-2.563v-3h2.563v-3.167l4.021-1.313v4.479h3.438v3L-78.625-162.688
				L-78.625-162.688z"/>
		</g>
	</g>
</g>
<g>
	<g transform="translate(138.971749, 199.480062)">
		<g>
			<path fill="#293E3B" d="M-67.53-165.688v13.501h-3.958v-2c-0.417,0.697-1,1.238-1.75,1.625c-0.74,0.385-1.578,0.582-2.521,0.582
				c-1.167,0-2.203-0.281-3.104-0.854c-0.891-0.568-1.594-1.381-2.104-2.438c-0.5-1.054-0.75-2.271-0.75-3.646
				c0-1.385,0.25-2.625,0.75-3.708c0.511-1.083,1.219-1.922,2.125-2.521c0.901-0.594,1.927-0.896,3.083-0.896
				c0.943,0,1.781,0.208,2.521,0.625c0.75,0.405,1.333,0.953,1.75,1.646v-1.917L-67.53-165.688L-67.53-165.688z M-74.572-155.043
				c0.984,0,1.74-0.333,2.271-1c0.542-0.678,0.813-1.656,0.813-2.938c0-1.275-0.271-2.256-0.813-2.938
				c-0.531-0.678-1.287-1.021-2.271-1.021c-1,0-1.781,0.354-2.333,1.063c-0.542,0.708-0.813,1.697-0.813,2.958
				c0,1.25,0.271,2.209,0.813,2.875C-76.363-155.376-75.587-155.043-74.572-155.043z"/>
		</g>
	</g>
</g>
<g>
	<g transform="translate(151.55202, 199.480062)">
		<g>
			<path fill="#293E3B" d="M-69.004-166.001c0.568,0,1.047,0.083,1.438,0.25l-0.021,3.688c-0.667-0.302-1.328-0.458-1.979-0.458
				c-1.073,0-1.885,0.292-2.438,0.875c-0.557,0.572-0.833,1.369-0.833,2.396v7.063h-4.021v-9.646c0-1.428-0.073-2.713-0.208-3.854
				h3.771l0.271,2.313c0.333-0.845,0.859-1.49,1.583-1.938C-70.722-165.772-69.91-166.001-69.004-166.001z"/>
		</g>
	</g>
</g>
<g>
	<g transform="translate(159.73918, 199.480062)">
		<g>
			<path fill="#293E3B" d="M-69.066-162.688v5.251c0,0.75,0.193,1.301,0.583,1.646c0.385,0.351,0.896,0.521,1.521,0.521
				c0.385,0,0.833-0.063,1.333-0.188v3.104c-0.641,0.25-1.417,0.375-2.333,0.375c-1.667,0-2.938-0.463-3.813-1.396
				c-0.875-0.942-1.313-2.271-1.313-3.979v-5.333h-2.563v-3h2.563v-3.167l4.021-1.313v4.479h3.438v3L-69.066-162.688
				L-69.066-162.688z"/>
		</g>
	</g>
</g>
<g>
	<g transform="translate(173.257982, 199.480062)">
		<g>
			<path fill="#293E3B" d="M-57.185-161.98c1.094,0.323,1.942,0.887,2.542,1.688c0.609,0.792,0.917,1.767,0.917,2.917
				c0,1.6-0.599,2.863-1.792,3.792c-1.182,0.933-2.792,1.396-4.833,1.396h-9v-18.958h8.729c1.969,0,3.526,0.448,4.667,1.333
				c1.151,0.875,1.729,2.073,1.729,3.583c0,1-0.266,1.875-0.792,2.625C-55.549-162.866-56.268-162.324-57.185-161.98z
				 M-65.31-163.418h4c1.052,0,1.844-0.178,2.375-0.542c0.526-0.375,0.792-0.943,0.792-1.708c0-0.776-0.266-1.354-0.792-1.729
				c-0.531-0.375-1.323-0.563-2.375-0.563h-4V-163.418z M-60.831-155.376c1.109,0,1.917-0.188,2.417-0.563
				c0.511-0.386,0.771-1,0.771-1.832c0-0.859-0.26-1.484-0.771-1.875c-0.5-0.387-1.307-0.584-2.417-0.584h-4.479v4.854
				L-60.831-155.376L-60.831-155.376z"/>
		</g>
	</g>
</g>
<g>
	<g transform="translate(187.15619, 199.480062)">
		<g>
			<path fill="#293E3B" d="M-57.135-166.001c0.566,0,1.047,0.083,1.438,0.25l-0.021,3.688c-0.666-0.302-1.327-0.458-1.979-0.458
				c-1.074,0-1.887,0.292-2.438,0.875c-0.558,0.572-0.833,1.369-0.833,2.396v7.063h-4.021v-9.646c0-1.428-0.073-2.713-0.208-3.854
				h3.771l0.271,2.313c0.333-0.845,0.859-1.49,1.584-1.938C-58.853-165.772-58.041-166.001-57.135-166.001z"/>
		</g>
	</g>
</g>
<g>
	<g transform="translate(195.343349, 199.480062)">
		<g>
			<path fill="#293E3B" d="M-50.156-158.605h-8.875c0.066,1.267,0.396,2.188,0.979,2.771c0.584,0.572,1.448,0.854,2.604,0.854
				c0.692,0,1.386-0.108,2.083-0.332c0.693-0.234,1.334-0.574,1.917-1.021l1.063,2.708c-0.642,0.517-1.438,0.917-2.396,1.208
				c-0.948,0.292-1.896,0.438-2.854,0.438c-2.267,0-4.053-0.625-5.354-1.875c-1.291-1.25-1.938-2.957-1.938-5.125
				c0-1.358,0.276-2.572,0.834-3.646c0.567-1.083,1.354-1.922,2.354-2.521c1.011-0.594,2.155-0.896,3.438-0.896
				c1.9,0,3.4,0.62,4.5,1.854c1.094,1.239,1.646,2.906,1.646,5L-50.156-158.605L-50.156-158.605z M-56.198-163.209
				c-0.767,0-1.386,0.224-1.854,0.667c-0.457,0.447-0.766,1.094-0.916,1.938h5.354C-53.823-162.339-54.687-163.209-56.198-163.209z"
				/>
		</g>
	</g>
</g>
<g>
	<g transform="translate(206.326129, 199.480062)">
		<g>
			<path fill="#293E3B" d="M-45.078-165.688v13.501h-3.959v-2c-0.416,0.697-1,1.238-1.75,1.625c-0.74,0.385-1.578,0.582-2.521,0.582
				c-1.166,0-2.203-0.281-3.104-0.854c-0.891-0.568-1.594-1.381-2.104-2.438c-0.5-1.054-0.75-2.271-0.75-3.646
				c0-1.385,0.25-2.625,0.75-3.708c0.51-1.083,1.219-1.922,2.125-2.521c0.899-0.594,1.926-0.896,3.082-0.896
				c0.942,0,1.781,0.208,2.521,0.625c0.75,0.405,1.334,0.953,1.75,1.646v-1.917L-45.078-165.688L-45.078-165.688z M-52.121-155.043
				c0.984,0,1.74-0.333,2.271-1c0.541-0.678,0.813-1.656,0.813-2.938c0-1.275-0.271-2.256-0.813-2.938
				c-0.531-0.678-1.287-1.021-2.271-1.021c-1,0-1.781,0.354-2.332,1.063c-0.543,0.708-0.813,1.697-0.813,2.958
				c0,1.25,0.27,2.209,0.813,2.875C-53.912-155.376-53.137-155.043-52.121-155.043z"/>
		</g>
	</g>
</g>
<g>
	<g transform="translate(218.906401, 199.480062)">
		<g>
			<path fill="#293E3B" d="M-40.156-152.187h-4.938l-5.291-6.043v6.043h-4.021v-19.604h4.021v11.917l5.063-5.792h4.813l-5.729,6.479
				L-40.156-152.187z"/>
		</g>
	</g>
</g>
</svg>
