<?xml version="1.0" encoding="utf-8"?>
<!-- Generator: Adobe Illustrator 16.0.0, SVG Export Plug-In . SVG Version: 6.00 Build 0)  -->
<!DOCTYPE svg PUBLIC "-//W3C//DTD SVG 1.1//EN" "http://www.w3.org/Graphics/SVG/1.1/DTD/svg11.dtd">
<svg version="1.1" id="Layer_1" xmlns="http://www.w3.org/2000/svg" xmlns:xlink="http://www.w3.org/1999/xlink" x="0px" y="0px"
	 width="254px" height="75px" viewBox="0 0 254 75" enable-background="new 0 0 254 75" xml:space="preserve">
<g>
	<defs>
		<rect id="SVGID_1_" x="2.005" y="2" width="250" height="71"/>
	</defs>
	<clipPath id="SVGID_2_">
		<use xlink:href="#SVGID_1_"  overflow="visible"/>
	</clipPath>
	<g clip-path="url(#SVGID_2_)">
		<path fill="#4DBD98" d="M11.01,2H243c2.386,0,4.672,0.953,6.359,2.651s2.641,4,2.641,6.396v52.906
			c0,2.402-0.953,4.703-2.641,6.402C247.672,72.047,245.386,73,243,73H11.01c-2.391,0-4.677-0.953-6.364-2.645
			c-1.688-1.699-2.636-4-2.636-6.402V11.047c0-2.396,0.948-4.697,2.636-6.396S8.62,2,11.01,2"/>
	</g>
</g>
<g>
	<defs>
		<rect id="SVGID_3_" x="188.844" y="19.026" width="37" height="37.001"/>
	</defs>
	<clipPath id="SVGID_4_">
		<use xlink:href="#SVGID_3_"  overflow="visible"/>
	</clipPath>
	<g clip-path="url(#SVGID_4_)">
		<path fill="#293E3B" d="M207.323,19.011c-10.198,0-18.495,8.297-18.495,18.495c0,10.197,8.297,18.494,18.495,18.494
			c10.197,0,18.494-8.297,18.494-18.494C225.817,27.308,217.521,19.011,207.323,19.011z M205.933,45.781
			c0,0.453-0.365,0.818-0.818,0.818h-6.063c-0.453,0-0.822-0.365-0.822-0.818V29.234c0-0.458,0.369-0.822,0.822-0.822h6.063
			c0.453,0,0.818,0.364,0.818,0.822V45.781z M216.417,45.781c0,0.453-0.365,0.818-0.823,0.818h-6.063
			c-0.448,0-0.817-0.365-0.817-0.818V29.234c0-0.458,0.369-0.822,0.817-0.822h6.063c0.458,0,0.823,0.364,0.823,0.822V45.781z"/>
	</g>
</g>
<g>
	<g transform="translate(118.18056, 199.480062)">
		<g>
			<path fill="#293E3B" d="M-81.086-151.938c-1.448,0-2.828-0.188-4.146-0.563c-1.323-0.386-2.417-0.927-3.292-1.625l1.333-2.979
				c1.833,1.281,3.875,1.917,6.125,1.917c1.208,0,2.13-0.188,2.771-0.563c0.651-0.386,0.979-0.927,0.979-1.625
				c0-0.609-0.302-1.089-0.896-1.438c-0.583-0.344-1.625-0.677-3.125-1c-1.667-0.333-2.995-0.739-3.979-1.229
				c-0.99-0.484-1.708-1.073-2.167-1.771c-0.448-0.709-0.667-1.584-0.667-2.625c0-1.136,0.313-2.156,0.938-3.063
				c0.636-0.917,1.526-1.625,2.667-2.125c1.135-0.5,2.448-0.75,3.938-0.75c1.344,0,2.635,0.197,3.875,0.583
				c1.25,0.391,2.25,0.917,3,1.583l-1.333,2.979c-1.667-1.276-3.51-1.917-5.521-1.917c-1.057,0-1.906,0.219-2.542,0.646
				c-0.641,0.432-0.958,1.01-0.958,1.729c0,0.433,0.115,0.792,0.354,1.084c0.234,0.281,0.635,0.531,1.208,0.75
				c0.568,0.224,1.375,0.438,2.417,0.646c2.427,0.531,4.177,1.224,5.25,2.084c1.083,0.849,1.625,2.01,1.625,3.479
				c0,1.781-0.698,3.188-2.083,4.229C-76.69-152.459-78.617-151.938-81.086-151.938z"/>
		</g>
	</g>
</g>
<g>
	<g transform="translate(131.299986, 199.480062)">
		<g>
			<path fill="#293E3B" d="M-78.546-162.688v5.25c0,0.75,0.193,1.302,0.583,1.646c0.385,0.35,0.896,0.521,1.521,0.521
				c0.385,0,0.833-0.063,1.333-0.188v3.104c-0.641,0.25-1.417,0.375-2.333,0.375c-1.667,0-2.938-0.463-3.813-1.396
				c-0.875-0.942-1.313-2.271-1.313-3.979v-5.333h-2.563v-3h2.563v-3.167l4.021-1.313v4.479h3.438v3H-78.546z"/>
		</g>
	</g>
</g>
<g>
	<g transform="translate(139.20759, 199.480062)">
		<g>
			<path fill="#293E3B" d="M-74.535-151.98c-1.433,0-2.688-0.281-3.771-0.854c-1.073-0.568-1.896-1.381-2.479-2.438
				c-0.573-1.068-0.854-2.313-0.854-3.729s0.281-2.656,0.854-3.729c0.583-1.067,1.406-1.886,2.479-2.458
				c1.083-0.568,2.338-0.854,3.771-0.854c1.417,0,2.656,0.286,3.729,0.854c1.068,0.572,1.885,1.391,2.458,2.458
				c0.583,1.073,0.875,2.313,0.875,3.729s-0.292,2.661-0.875,3.729c-0.573,1.057-1.391,1.869-2.458,2.438
				C-71.878-152.261-73.118-151.98-74.535-151.98z M-74.535-155.043c1,0,1.755-0.322,2.271-0.979
				c0.526-0.651,0.792-1.646,0.792-2.979c0-1.317-0.266-2.313-0.792-2.979c-0.516-0.667-1.271-1-2.271-1
				c-1.016,0-1.787,0.333-2.313,1c-0.531,0.667-0.792,1.662-0.792,2.979C-77.639-156.36-76.608-155.043-74.535-155.043z"/>
		</g>
	</g>
</g>
<g>
	<g transform="translate(151.268677, 199.480062)">
		<g>
			<path fill="#293E3B" d="M-68.702-166.043c1.151,0,2.177,0.302,3.083,0.896c0.917,0.6,1.625,1.438,2.125,2.521
				c0.5,1.083,0.75,2.323,0.75,3.708c0,1.375-0.25,2.594-0.75,3.646c-0.49,1.057-1.188,1.869-2.104,2.438
				c-0.906,0.572-1.938,0.854-3.104,0.854c-0.948,0-1.792-0.197-2.542-0.583c-0.74-0.386-1.302-0.927-1.688-1.625v7.75h-4.021
				v-15.396c0-1.427-0.073-2.713-0.208-3.854h3.771l0.271,2.229c0.359-0.791,0.927-1.416,1.708-1.875
				C-70.619-165.803-69.718-166.043-68.702-166.043z M-69.848-155.043c1,0,1.76-0.333,2.292-1c0.526-0.666,0.792-1.625,0.792-2.875
				c0-1.26-0.271-2.25-0.813-2.958c-0.542-0.709-1.302-1.063-2.271-1.063c-0.99,0-1.75,0.344-2.292,1.021
				c-0.542,0.683-0.813,1.662-0.813,2.938c0,1.281,0.271,2.261,0.813,2.938C-71.598-155.376-70.838-155.043-69.848-155.043z"/>
		</g>
	</g>
</g>
<g>
	<g transform="translate(169.480116, 199.480062)">
		<g>
			<path fill="#293E3B" d="M-58.444-161.98c1.094,0.323,1.942,0.886,2.542,1.688c0.609,0.792,0.917,1.766,0.917,2.917
				c0,1.599-0.599,2.864-1.792,3.792c-1.182,0.932-2.792,1.396-4.833,1.396h-9v-18.959h8.729c1.969,0,3.526,0.448,4.667,1.334
				c1.151,0.875,1.729,2.072,1.729,3.583c0,1-0.266,1.875-0.792,2.625C-56.809-162.866-57.527-162.324-58.444-161.98z
				 M-66.569-163.418h4c1.052,0,1.844-0.177,2.375-0.542c0.526-0.375,0.792-0.942,0.792-1.708c0-0.776-0.266-1.354-0.792-1.729
				c-0.531-0.375-1.323-0.563-2.375-0.563h-4V-163.418z M-62.09-155.376c1.109,0,1.917-0.188,2.417-0.563
				c0.511-0.386,0.771-1,0.771-1.833c0-0.859-0.26-1.484-0.771-1.875c-0.5-0.386-1.307-0.584-2.417-0.584h-4.479v4.854H-62.09z"/>
		</g>
	</g>
</g>
<g>
	<g transform="translate(183.378324, 199.480062)">
		<g>
			<path fill="#293E3B" d="M-58.395-166.001c0.568,0,1.047,0.083,1.438,0.25l-0.021,3.688c-0.667-0.303-1.328-0.459-1.979-0.459
				c-1.073,0-1.885,0.292-2.438,0.876c-0.557,0.572-0.833,1.369-0.833,2.396v7.063h-4.021v-9.646c0-1.427-0.073-2.713-0.208-3.854
				h3.771l0.271,2.313c0.333-0.844,0.859-1.49,1.583-1.938C-60.114-165.772-59.301-166.001-58.395-166.001z"/>
		</g>
	</g>
</g>
<g>
	<g transform="translate(191.565484, 199.480062)">
		<g>
			<path fill="#293E3B" d="M-51.415-158.605h-8.875c0.067,1.266,0.396,2.188,0.979,2.771c0.584,0.572,1.448,0.854,2.604,0.854
				c0.692,0,1.386-0.109,2.083-0.333c0.693-0.234,1.334-0.573,1.917-1.021l1.063,2.708c-0.641,0.516-1.438,0.917-2.396,1.208
				c-0.948,0.292-1.896,0.438-2.854,0.438c-2.266,0-4.052-0.625-5.354-1.875c-1.291-1.25-1.938-2.958-1.938-5.125
				c0-1.359,0.276-2.572,0.834-3.646c0.567-1.084,1.354-1.922,2.354-2.521c1.011-0.594,2.156-0.896,3.438-0.896
				c1.901,0,3.401,0.62,4.5,1.854c1.094,1.239,1.646,2.906,1.646,5V-158.605z M-57.457-163.21c-0.766,0-1.386,0.225-1.854,0.667
				c-0.458,0.448-0.766,1.094-0.916,1.938h5.354C-55.082-162.339-55.946-163.21-57.457-163.21z"/>
		</g>
	</g>
</g>
<g>
	<g transform="translate(202.548263, 199.480062)">
		<g>
			<path fill="#293E3B" d="M-46.338-165.688v13.5h-3.958v-2c-0.417,0.698-1,1.239-1.75,1.625c-0.74,0.386-1.578,0.583-2.521,0.583
				c-1.166,0-2.203-0.281-3.104-0.854c-0.891-0.568-1.594-1.381-2.104-2.438c-0.5-1.053-0.75-2.271-0.75-3.646
				c0-1.385,0.25-2.625,0.75-3.708c0.511-1.084,1.219-1.922,2.125-2.521c0.901-0.594,1.927-0.896,3.083-0.896
				c0.943,0,1.781,0.208,2.521,0.625c0.75,0.406,1.333,0.953,1.75,1.646v-1.916H-46.338z M-53.38-155.043
				c0.984,0,1.74-0.333,2.271-1c0.541-0.677,0.813-1.656,0.813-2.938c0-1.275-0.271-2.255-0.813-2.938
				c-0.531-0.677-1.287-1.021-2.271-1.021c-1,0-1.781,0.354-2.333,1.063c-0.542,0.708-0.813,1.698-0.813,2.958
				c0,1.25,0.271,2.209,0.813,2.875C-55.171-155.376-54.396-155.043-53.38-155.043z"/>
		</g>
	</g>
</g>
<g>
	<g transform="translate(215.128535, 199.480062)">
		<g>
			<path fill="#293E3B" d="M-41.416-152.188h-4.938l-5.291-6.042v6.042h-4.021v-19.604h4.021v11.917l5.063-5.792h4.813l-5.729,6.479
				L-41.416-152.188z"/>
		</g>
	</g>
</g>
</svg>
